<?xml version="1.0" encoding="UTF-8"?>
<svg id="Camada_1" data-name="Camada 1" xmlns="http://www.w3.org/2000/svg" viewBox="0 0 259.74 259.82">
  <defs>
    <style>
      .cls-1 {
        fill: #759870;
      }
    </style>
  </defs>
  <path class="cls-1" d="M202.96,81.86h-64.43c-31.3,0-56.77,25.47-56.77,56.77v64.42c0,31.3,25.47,56.77,56.77,56.77s56.77-25.47,56.77-56.77v-7.65h7.65c31.3,0,56.77-25.47,56.77-56.77s-25.47-56.77-56.77-56.77ZM184.37,184.46h-46.34c-10.29,0-18.66-8.37-18.66-18.66v-1.89c0-10.29,8.37-18.66,18.66-18.66h7.13v-7.13c0-10.29,8.37-18.66,18.66-18.66h1.89c10.29,0,18.66,8.37,18.66,18.66v46.34ZM202.96,184.46h-7.65v-46.34c0-16.32-13.28-29.6-29.6-29.6h-1.89c-15.1,0-27.6,11.37-29.38,26.01-14.63,1.78-26.01,14.27-26.01,29.38v1.89c0,16.32,13.28,29.6,29.6,29.6h46.34v7.65c0,25.27-20.56,45.83-45.83,45.83s-45.83-20.56-45.83-45.83v-64.42c0-25.27,20.56-45.83,45.83-45.83h64.43c25.27,0,45.83,20.56,45.83,45.83s-20.56,45.83-45.83,45.83ZM169.62,67.4c18.58,0,33.7-15.12,33.7-33.7S188.21,0,169.62,0s-33.7,15.12-33.7,33.7,15.12,33.7,33.7,33.7ZM169.62,10.94c12.55,0,22.76,10.21,22.76,22.76s-10.21,22.76-22.76,22.76-22.76-10.21-22.76-22.76,10.21-22.76,22.76-22.76ZM90.15,67.4c18.58,0,33.7-15.12,33.7-33.7S108.74,0,90.15,0s-33.7,15.12-33.7,33.7,15.12,33.7,33.7,33.7ZM90.15,10.94c12.55,0,22.75,10.21,22.75,22.76s-10.21,22.76-22.75,22.76-22.76-10.21-22.76-22.76,10.21-22.76,22.76-22.76ZM33.7,135.93c-18.58,0-33.7,15.12-33.7,33.7s15.12,33.7,33.7,33.7,33.7-15.12,33.7-33.7-15.12-33.7-33.7-33.7ZM33.7,192.39c-12.55,0-22.76-10.21-22.76-22.76s10.21-22.76,22.76-22.76,22.76,10.21,22.76,22.76-10.21,22.76-22.76,22.76ZM33.7,56.46C15.12,56.46,0,71.57,0,90.15s15.12,33.7,33.7,33.7,33.7-15.12,33.7-33.7-15.12-33.7-33.7-33.7ZM33.7,112.91c-12.55,0-22.76-10.21-22.76-22.76s10.21-22.76,22.76-22.76,22.76,10.21,22.76,22.76-10.21,22.76-22.76,22.76Z"/>
</svg>